<?xml version="1.0" encoding="UTF-8"?><svg id="_レイヤー_1" xmlns="http://www.w3.org/2000/svg" width="34" height="32" viewBox="-4 0 48 48"><g id="_页面-1"><g id="teacup_fill"><path id="MingCute" d="m48,0v48H0V0h48Z" fill="none" stroke-width="0"/><g id="_形状"><path d="m8,38.5c-.27,0-.5-.23-.5-.5s.23-.5.5-.5h10.96l-5.25-2.82c-5.06-2.72-8.21-7.96-8.21-13.68v-9c0-1.38,1.12-2.5,2.5-2.5h26c1.38,0,2.5,1.12,2.5,2.5v5.4l1.28.19c2.69.4,4.72,2.72,4.72,5.42,0,3.08-2.42,5.5-5.5,5.5h-2.42l-.44.69c-1.49,2.33-3.52,4.23-5.85,5.49l-5.24,2.82h10.95c.27,0,.5.23.5.5s-.23.5-.5.5H8Zm28.5-17.5c0,1.36-.21,2.87-.66,4.64l-.5,2,2.05-.14c2.3-.15,4.1-2.13,4.1-4.5,0-1.71-.97-3.26-2.53-4.04l-.1-.05-2.38-.79v2.88Z" stroke-width="0" fill='currentColor'/><path d="m34,11c.54,0,1,.46,1,1v9c0,1.23-.2,2.63-.61,4.27l-.43,1.73h-.2l-.89,1.38c-1.36,2.12-3.19,3.84-5.3,4.98l-6.57,3.54-6.59-3.54c-4.58-2.46-7.42-7.19-7.42-12.36v-9c0-.54.46-1,1-1h26m0-3H8c-2.2,0-4,1.8-4,4v9c0,6.5,3.6,12.1,9,15h-5c-1.1,0-2,.9-2,2s.9,2,2,2h26c1.1,0,2-.9,2-2s-.9-2-2-2h-5c2.6-1.4,4.8-3.5,6.4-6h1.6c3.9,0,7-3.1,7-7,0-3.5-2.6-6.4-6-6.9v-4.1c0-2.2-1.8-4-4-4h0Zm3.3,18c.4-1.6.7-3.3.7-5v-.8l.3.1c1,.5,1.7,1.5,1.7,2.7,0,1.6-1.2,2.9-2.7,3h0Z" stroke-width="1" stroke='#FFCA99' fill='#FFCA99'/></g></g></g></svg>