<?xml version="1.0" encoding="utf-8"?>
<!-- Generator: Adobe Illustrator 28.0.0, SVG Export Plug-In . SVG Version: 6.00 Build 0)  -->
<svg version="1.1" id="レイヤー_1" xmlns="http://www.w3.org/2000/svg" xmlns:xlink="http://www.w3.org/1999/xlink" x="0px"
	 y="0px" viewBox="0 0 96 96" style="enable-background:new 0 0 96 96; color: inherit;" xml:space="preserve">
<style type="text/css">
	.st0{opacity:0;}
</style>
<path id="MingCute" class="st0" fill="#FFCA99" d="M96,0v96H0V0H96z M50.4,93L50.4,93L50,93.2l-0.1,0l0,0l-0.1,0L49.6,93c0,0-0.1,0-0.1,0l0,0
	l-0.1,1.7l0,0.1l0,0l0.4,0.3l0.1,0l0,0l0,0l0.4-0.3l0.1-0.1l0,0l0-0.1L50.4,93C50.4,93.1,50.4,93,50.4,93L50.4,93z M51.4,92.6
	L51.4,92.6L50.6,93l0,0l0,0l0,0l0.1,1.7l0,0.1l0,0l0,0l0.8,0.4c0,0,0.1,0,0.1,0l0-0.1L51.4,92.6C51.5,92.6,51.5,92.6,51.4,92.6
	L51.4,92.6z M48.6,92.6c0,0-0.1,0-0.1,0l0,0.1l-0.1,2.5c0,0,0,0.1,0.1,0.1l0.1,0l0.8-0.4l0,0l0,0l0,0l0.1-1.7l0-0.1l0,0l0,0
	L48.6,92.6z"/>
<path id="形状" fill="#FFCA99" d="M68,16c4.4,0,8,3.6,8,8v8.1c6.8,1,12,6.8,12,13.9c0,7.7-6.3,14-14,14h-3.2c-3.1,5-7.6,9.2-12.8,12h10
	c2.2,0,4,1.8,4,4s-1.8,4-4,4H16c-2.2,0-4-1.8-4-4s1.8-4,4-4h10C15.3,66.3,8,55,8,42V24c0-4.4,3.6-8,8-8H68z M76,40.3V42c0,3.5-0.5,6.8-1.5,10c3.1-0.3,5.5-2.8,5.5-6
	c0-2.4-1.4-4.5-3.5-5.4L76,40.3z"/>
</svg>
