<?xml version="1.0" encoding="UTF-8"?><svg id="_レイヤー_1" xmlns="http://www.w3.org/2000/svg" width="48" height="48" viewBox="0 0 48 48"><g id="Icon"><g id="Map"><g id="location_3_fill"><path id="MingCute" d="m48,0v48H0V0h48Zm-22.81,46.52h-.02s-.14.07-.14.07h-.04s-.03,0-.03,0l-.14-.07s-.04,0-.05.01v.02s-.04.85-.04.85v.04s.03.02.03.02l.21.15h.03s.02,0,.02,0l.21-.15.03-.03h0v-.03s-.03-.85-.03-.85c0-.02-.02-.03-.03-.04h0Zm.53-.23h-.03s-.37.19-.37.19l-.02.02h0v.02s.03.86.03.86v.03h.03s.4.2.4.2c.02,0,.05,0,.06-.02v-.03s-.06-1.23-.06-1.23c0-.02-.02-.04-.04-.04h0Zm-1.43,0s-.04,0-.05.01v.03s-.08,1.23-.08,1.23c0,.02.01.04.03.05h.03s.4-.19.4-.19l.02-.02h0v-.02s.04-.86.04-.86v-.03h0l-.02-.02-.37-.18Z" fill="none" stroke-width="0"/><g id="_形状"><path d="m8,42.5c-.17,0-.33-.09-.43-.24-.08-.13-.1-.28-.05-.43l.06-.15,3.96-7.91c.1-.2.3-.28.45-.28.08,0,.15.02.22.05.23.11.33.38.25.62l-.06.13-3.6,7.2h30.38l-3.64-7.28c-.08-.16-.05-.31-.03-.38s.09-.21.25-.29c.07-.04.14-.05.22-.05.17,0,.33.08.42.23l.07.13,3.96,7.92c.08.16.07.34-.02.49-.08.13-.21.21-.36.23h-.09s-31.97,0-31.97,0Zm16-8.77c-.33,0-.66-.09-.96-.25l-.5-.29-.59-.36-.31-.2-.73-.48c-1.72-1.17-3.27-2.46-4.59-3.81-3.2-3.29-4.82-6.77-4.82-10.33,0-6.89,5.61-12.5,12.5-12.5s12.5,5.61,12.5,12.5c0,3.57-1.62,7.04-4.82,10.33-1.31,1.35-2.86,2.64-4.6,3.82l-.73.48-.91.56-.5.29c-.28.16-.61.25-.94.25Zm0-21.23c-3.03,0-5.5,2.47-5.5,5.5s2.47,5.5,5.5,5.5,5.5-2.47,5.5-5.5-2.47-5.5-5.5-5.5Z" fill-rule="evenodd" stroke-width="0" stroke='#FFCA99' fill='currentColor'/><path d="m24,7c6.07,0,11,4.93,11,11,0,3.16-1.48,6.29-4.4,9.29-1.24,1.28-2.72,2.5-4.34,3.6l-.72.47-.6.38-.24.15-.49.28c-.07.04-.14.06-.22.06s-.15-.02-.19-.04l-.49-.28-.56-.34-.28-.18-.71-.47c-1.66-1.12-3.13-2.34-4.37-3.62-2.92-3-4.4-6.13-4.4-9.29,0-6.07,4.93-11,11-11m0,18c3.86,0,7-3.14,7-7s-3.14-7-7-7-7,3.14-7,7,3.14,7,7,7m0-21c-7.73,0-14,6.27-14,14,0,4.76,2.58,8.63,5.25,11.38,1.64,1.69,3.4,3.04,4.84,4.02l.75.49c.12.08.23.15.34.22l.62.38.51.3c.53.3,1.11.45,1.7.45s1.17-.15,1.7-.45l.51-.3c.09-.06.19-.12.3-.18l.67-.42.75-.49c1.43-.97,3.19-2.33,4.84-4.02,2.67-2.75,5.25-6.62,5.25-11.38,0-7.73-6.27-14-14-14h0Zm0,18c-2.21,0-4-1.79-4-4s1.79-4,4-4,4,1.79,4,4-1.79,4-4,4h0Zm-12,10c-.73,0-1.44.41-1.79,1.11l-4,8-.1.24c-.2.56-.13,1.19.19,1.71.36.59,1.01.95,1.7.95h32l.26-.02c.59-.08,1.13-.42,1.44-.93.36-.59.4-1.33.09-1.95l-4-8-.12-.2c-.38-.58-1.01-.9-1.67-.9-.3,0-.61.07-.89.21-.99.49-1.39,1.7-.89,2.68l2.55,5.11H11.24l2.55-5.11.09-.21c.34-.94-.07-2.01-.99-2.47-.29-.14-.59-.21-.89-.21h0Z" stroke-width="0" fill='#FFCA99'/></g></g></g></g></svg>