<?xml version="1.0" encoding="UTF-8"?><svg id="_レイヤー_1" xmlns="http://www.w3.org/2000/svg" width="32" height="32" viewBox="0 0 48 48"><g id="_页面-1"><g id="File"><g id="profile_fill"><path id="MingCute" d="m48,0v48H0V0h48Zm-22.81,46.52h-.02s-.14.07-.14.07h-.04s-.03,0-.03,0l-.14-.07s-.04,0-.05.01v.02s-.04.85-.04.85v.04s.03.02.03.02l.21.15h.03s.02,0,.02,0l.21-.15.03-.03h0v-.03s-.03-.85-.03-.85c0-.02-.02-.03-.03-.04h0Zm.53-.23h-.03s-.37.19-.37.19l-.02.02h0v.02s.03.86.03.86v.03h.03s.4.2.4.2c.02,0,.05,0,.06-.02v-.03s-.06-1.23-.06-1.23c0-.02-.02-.04-.04-.04h0Zm-1.43,0s-.04,0-.05.01v.03s-.08,1.23-.08,1.23c0,.02.01.04.03.05h.03s.4-.19.4-.19l.02-.02h0v-.02s.04-.86.04-.86v-.03h0l-.02-.02-.37-.18Z" fill="none" stroke-width="0"/><g id="_形状"><path d="m8,40.5c-1.38,0-2.5-1.12-2.5-2.5V10c0-1.38,1.12-2.5,2.5-2.5h32c1.38,0,2.5,1.12,2.5,2.5v28c0,1.38-1.12,2.5-2.5,2.5H8Zm6-12c-1.93,0-3.5,1.57-3.5,3.5s1.57,3.5,3.5,3.5h20c1.93,0,3.5-1.57,3.5-3.5s-1.57-3.5-3.5-3.5H14Zm10.63-3.54c.38,1.33,1.53,2.35,2.96,2.52l.32.02h6.09c1.93,0,3.5-1.57,3.5-3.5,0-1.78-1.33-3.27-3.09-3.48l-.32-.02h-6.09c-.98,0-1.87.4-2.5,1.05v-3.11c.64.65,1.52,1.05,2.5,1.05h6c1.93,0,3.5-1.57,3.5-3.5s-1.57-3.5-3.5-3.5h-6c-1.6,0-2.95,1.08-3.37,2.55-.91-1.42-2.45-2.4-4.22-2.53h-.35s-4.05-.01-4.05-.01c-2.87,0-5.27,2.24-5.49,5.09v.35s-.01,4.05-.01,4.05c0,2.86,2.24,5.27,5.09,5.49h.35s4.05.01,4.05.01c1.93,0,3.65-1.01,4.63-2.54Zm-7.13-4.46v-1h1v1h-1Z" stroke-width="0" fill='currentColor'/><path d="m40,9c.55,0,1,.45,1,1v28c0,.55-.45,1-1,1H8c-.55,0-1-.45-1-1V10c0-.55.45-1,1-1h32m-15.62,3.55c-1.07-.87-2.4-1.43-3.86-1.53h-.06s-.06,0-.06,0h-.3s-.06-.01-.06-.01h-4.06c-3.65,0-6.71,2.85-6.98,6.48v.06s0,.06,0,.06v.3s-.01.06-.01.06v4.06c0,2.24,1.07,4.25,2.74,5.54-1.62.83-2.74,2.51-2.74,4.46,0,2.76,2.24,5,5,5h20c2.76,0,5-2.24,5-5,0-1.63-.79-3.09-2-4,1.22-.91,2-2.37,2-4s-.78-3.09-2-4c1.21-.91,2-2.37,2-4,0-2.76-2.24-5-5-5h-6c-1.42,0-2.71.6-3.62,1.55m15.62-6.55H8c-2.21,0-4,1.79-4,4v28c0,2.21,1.79,4,4,4h32c2.21,0,4-1.79,4-4V10c0-2.21-1.79-4-4-4h0Zm-12,12c-1.1,0-2-.9-2-2s.9-2,2-2h6c1.1,0,2,.9,2,2s-.9,2-2,2h-6Zm-12,8h-.3c-2.07-.16-3.7-1.89-3.7-4v-4.3c.16-2.07,1.89-3.7,4-3.7h4.3c2.07.16,3.7,1.89,3.7,4v4.3c-.16,2.07-1.89,3.7-4,3.7h-4Zm12,0h-.23c-.99-.13-1.77-.97-1.77-2,0-1.1.9-2,2-2h6.23c.99.13,1.77.97,1.77,2,0,1.1-.9,2-2,2h-6Zm-14,8c-1.1,0-2-.9-2-2s.9-2,2-2h20c1.1,0,2,.9,2,2s-.9,2-2,2H14Zm6-16h-4v4h4v-4h0Z" stroke-width="0"  stroke='#FFCA99' fill='#FFCA99'/></g></g></g></g></svg>