<?xml version="1.0" encoding="UTF-8"?><svg id="_レイヤー_1" xmlns="http://www.w3.org/2000/svg" width="48" height="48" viewBox="0 0 48 48"><g id="_页面-1"><g id="Building"><g id="home_3_fill"><path id="MingCute" d="m48,0v48H0V0h48Zm-22.81,46.52h-.02s-.14.07-.14.07h-.04s-.03,0-.03,0l-.14-.07s-.04,0-.05.01v.02s-.04.85-.04.85v.04s.03.02.03.02l.21.15h.03s.02,0,.02,0l.21-.15.03-.03h0v-.03s-.03-.85-.03-.85c0-.02-.02-.03-.03-.04h0Zm.53-.23h-.03s-.37.19-.37.19l-.02.02h0v.02s.03.86.03.86v.03h.03s.4.2.4.2c.02,0,.05,0,.06-.02v-.03s-.06-1.23-.06-1.23c0-.02-.02-.04-.04-.04h0Zm-1.43,0s-.04,0-.05.01v.03s-.08,1.23-.08,1.23c0,.02.01.04.03.05h.03s.4-.19.4-.19l.02-.02h0v-.02s.04-.86.04-.86v-.03h0l-.02-.02-.37-.18Z" fill="none" stroke-width="0"/><path id="_路径" d="m26.46,5.38c-1.44-1.12-3.47-1.12-4.91,0L4.78,18.42c-1.5,1.17-.68,3.58,1.23,3.58h1.99v16c0,2.21,1.79,4,4,4h8v-12c0-2.21,1.79-4,4-4s4,1.79,4,4v12h8c2.21,0,4-1.79,4-4v-16h1.99c1.9,0,2.74-2.41,1.23-3.58L26.46,5.38Z" stroke='#FFCA99' fill='currentColor' stroke-miterlimit="10" stroke-width="3"/></g></g></g></svg>